<?xml version="1.0" encoding="UTF-8" standalone="no"?>
<svg
   xmlns:dc="http://purl.org/dc/elements/1.1/"
   xmlns:cc="http://creativecommons.org/ns#"
   xmlns:rdf="http://www.w3.org/1999/02/22-rdf-syntax-ns#"
   xmlns:svg="http://www.w3.org/2000/svg"
   xmlns="http://www.w3.org/2000/svg"
   xmlns:sodipodi="http://sodipodi.sourceforge.net/DTD/sodipodi-0.dtd"
   xmlns:inkscape="http://www.inkscape.org/namespaces/inkscape"
   version="1.1"
   id="Map"
   width="895.9375"
   height="830.6887817382812"
   inkscape:version="0.92.4 (5da689c313, 2019-01-14)"
   sodipodi:docname="Mapa_departamentos_Formosa_PJ.svg"
   viewBox="-79.73762512207031 -44.99870681762695 1038.907470703125 946.1878051757812">
  <metadata
     id="metadata4410">
    <rdf:RDF>
      <cc:Work
         rdf:about="">
        <dc:format>image/svg+xml</dc:format>
        <dc:type
           rdf:resource="http://purl.org/dc/dcmitype/StillImage" />
        <dc:title />
      </cc:Work>
    </rdf:RDF>
  </metadata>
  <sodipodi:namedview
     pagecolor="#ffffff"
     bordercolor="#666666"
     borderopacity="1"
     objecttolerance="10"
     gridtolerance="10"
     guidetolerance="10"
     inkscape:pageopacity="0"
     inkscape:pageshadow="2"
     inkscape:window-width="1366"
     inkscape:window-height="705"
     id="namedview4408"
     showgrid="false"
     inkscape:zoom="0.64"
     inkscape:cx="440.19906"
     inkscape:cy="474.09049"
     inkscape:window-x="-8"
     inkscape:window-y="-8"
     inkscape:window-maximized="1"
     inkscape:current-layer="g3388"
     fit-margin-top="0"
     fit-margin-left="0"
     fit-margin-right="0"
     fit-margin-bottom="0" />
  <g
     id="g3388"
     inkscape:groupmode="layer"
     inkscape:label="Departamentos"
     clip-path="url(#clip)"
     visibility="visible"
     transform="matrix(0.02979838,0,0,0.02979838,9800.472,-3403.7995)"
     style="display:inline;visibility:visible">
    <path
       d="m -323853.78,120995.02 v 0 l 7.35,19.33 13.94,34.09 62.24,47.63 28.28,8.07 29.16,20.09 14.28,37.68 5.31,29.23 5.44,31.9 28.88,31.38 44.74,16.27 36.61,-3 23.59,0.63 10.85,18.42 17.99,20.07 38.55,3.02 23.73,-3.34 28.98,13.55 4.3,4.03 65.43,52.53 42.27,48.89 18.87,55.92 7.41,37.9 3.3,31.84 25.94,131.66 61.32,31.38 62.88,2.55 82.71,51.69 34.37,25.73 2.38,1.78 18.94,78.33 54.9,31.2 31.66,18.7 79.92,-13.78 94.71,-5.48 94.4,4.43 51.23,11.25 29.1,32.5 38.41,17 15.66,-1.97 15.68,36.5 25.55,13.94 8.87,1.06 31.27,3.73 16.68,15.01 3.22,25.88 0.24,1.98 -3.86,14.61 5.36,22.41 25.06,24.45 33.52,28.61 48.14,42.91 35.69,28.69 64.43,1.17 23.27,12.95 94.74,-5.52 34.07,10.78 -17.29,10.03 14.24,4.5 -45.94,26.61 -36.99,14.94 -22.85,28.19 2.35,26.12 25.95,28.37 41.03,32.84 18.49,28.23 13.38,55.91 53.37,13.21 3.54,25.91 -3.32,12.6 0.26,1.93 -3.65,13.87 22.07,33.46 44.48,22.94 55.47,15.28 60.4,-6.42 77.46,12.07 65.19,37.12 41.65,46.66 20.79,24.31 39.01,9.44 18.37,13.81 32.24,0.79 21.09,14.41 20.81,24.32 25.29,18.48 19.42,-1.51 13.18,-9.6 5.97,-7.28 5.17,-6.33 -6.21,-24.23 -1.06,-4.14 5.68,-14.26 34.65,15.67 34.28,4.81 49.89,-14.65 34.79,-13.03 16.68,18.26 10.01,26.03 -0.8,27.74 12.32,20.14 19.46,11.1 127.21,21.3 33.28,17.74 51.45,60.24 21.81,10.2 20.53,11.01 24.45,48.21 14.54,18.19 25.11,4.15 35.03,-0.72 25.59,8.55 3.45,29.84 -4.09,5.7 1.02,8.85 -6.77,9.43 3.11,19.15 47.84,25.29 31.24,36.44 29.56,16.27 28.46,33.76 22.97,15.03 24.43,12.81 27.34,22.47 40.75,4.43 40.71,7.41 38.69,2.9 32.59,-11.13 31.32,-42.9 13.02,-3.66 17.04,6.36 33.48,34.5 19.29,2.43 41.39,-15.19 21.05,14.67 35.03,56.34 26.77,44.27 29.28,30.43 29.64,18.54 19.92,-1.49 31.59,6.65 18.32,22.28 24.09,21.03 22.01,41.48 21.13,14.36 64,21.33 42.34,26.74 33.62,30.52 21.57,31.81 -7.09,8.71 3.99,5.86 -9.84,12.08 -39.11,12.99 -2.5,7.01 19.36,26.32 14.36,26.12 5.39,39.79 -3.9,8.73 0.8,5.84 -18.35,41.22 -3.82,15.57 16.16,25.6 26.07,15.11 34.63,17.69 6.09,14.59 -5.49,8.83 2.4,5.74 -15.86,25.53 -4.7,7.55 6.78,29.8 37.51,46.47 72.7,63.62 41.27,24.25 48.85,56.11 20.06,24.76 11.7,45.87 14.28,30.07 41.37,24.77 34.25,48.31 24.79,40.22 9.65,41.86 52.05,68.58 33.25,46.34 44.47,30.74 37.73,40.5 25.32,20.38 32.42,-3.23 34.37,4.72 53.85,1.21 36.54,4.76 23.9,-7.4 17.66,-15.47 6.93,-17.69 21.75,-7.45 34.36,4.73 27.54,18.44 42.37,28.69 36.17,18.63 20.87,26.24 39.71,48.46 72.4,35.27 72.25,41.22 31.72,24.47 46.83,22.81 25.27,24.35 27.05,38.25 25.46,6.74 30.86,15.58 61.42,11.94 51.93,-6.83 47.98,-20.79 30.36,-7.27 6.65,12.11 -2.84,12.87 -2.65,14.69 4.27,25.3 16.68,-1.06 17.5,-9.56 16.22,-18.16 18.91,-6.86 25.53,14.42 10.3,2.61 15.4,3.89 30.58,-15.22 13.23,-11.62 25.96,-3.41 23.33,16.34 25.67,8.47 32.57,-9.22 21,7.67 43.38,5.58 26.19,26.08 75.18,17.48 66.71,49.15 78.26,31.01 141.35,33.35 87.02,-3.28 66.02,-13.07 44.9,-2.14 104.5,-4.99 43.34,36.42 37.57,46.47 -2.19,91.38 20.89,51.21 86.97,62.68 93.45,22.17 112.39,16.16 36.58,4.71 21.49,4.38 61.64,-20.64 188.13,-6.48 88.06,16.93 86.93,67.7 71.15,31.85 132.18,41.3 34.4,24.71 16.39,22.46 33.36,100.24 17.64,24.82 26.6,20.38 -777.43,779.61 -1587.55,1583.83 -196.45,196.49 -71.5,71.46 -1382.1,1377.02 1.8,-18.78 -3.86,-28.69 -0.56,-28.84 -0.98,-28.82 -9.63,-27.23 -20.37,-24.57 -16.38,-22.53 -2.35,-28.55 -10.87,-23.32 24.37,-20.07 16.56,-24.17 -31.06,2.13 -31.28,5.33 -16.18,-22.69 -2.06,-29.08 -8.25,-22.5 -7.23,-18.55 -4.03,-28.49 4.25,-28.9 10.87,-26.01 -30.26,-6.8 -24.57,-6.53 -19.77,22.95 -9.13,24.16 5.75,28.5 -24.07,15.95 -27,-13.62 -11.83,-28.18 -16.67,-17.53 -27.45,11.49 -12.56,-26.1 9.91,-26.69 -0.64,-26.09 -23.27,-14.77 3.25,-29.39 -6.71,-28 9.43,-26.13 -26.53,-15.98 -18.89,-22.99 -17.44,-24.52 -31.06,-0.77 -31.38,-0.13 -9.96,-27.13 17.73,-23.72 3.94,-29.12 -25.25,-15.05 -31.34,-3.58 -31.7,-0.27 -30.83,-4.77 -30.3,-8.57 -30.22,-7.82 -11.23,-26.29 -20.71,-14.53 -31.82,-10.26 -27.4,2.42 -22.99,21.38 -22.75,20.61 -31.56,-0.84 -31.42,-2.71 -31.42,-2.53 -31.7,-0.19 -30.94,7.24 -22.41,19 -7.87,28.39 -14.14,25.12 -27.8,2.76 0.54,-28.09 17.11,-25.48 -12.06,-23.25 -29.46,-10.64 -31.32,-2.7 -31.36,-5.59 -30.3,7.03 -29.82,3.14 -29.74,-11.67 -31.8,-0.54 -29.92,-3.54 -23.45,-20.18 -26.48,-15.97 -20.94,-21.72 -25.88,-9.48 -31.22,4.25 -30.72,6.61 -31.14,0.66 -24.69,-17.63 -24.64,-17.74 -30.94,-5 -30.64,-6.8 -10.37,-2.94 -19.91,-5.57 -30.42,-6.39 -31.48,5.67 -27.95,10.65 -20.97,22.16 -24.03,11.9 -23.47,-19.99 -16.17,-25.13 3.55,-28.27 -7.55,-27.8 -10.13,-27.52 -10.62,-27.18 -17.64,-24 -12.64,-26.08 -10.77,-26.66 -22.15,-23.53 -25.11,-11.47 -29.28,16.63 -20.93,-11.25 -14.04,-20.82 -24.93,-15.96 -26.76,-17.26 -20.78,-22.63 -5.13,-29.59 -7.25,-29.77 -23.01,-10.54 -32.88,11.02 -22.09,-19.29 -4.03,-29.4 -15.52,-26.45 -22.63,-21.21 -30.06,-12.03 -30.26,-11.38 -28.84,-13.35 -22.83,-21.59 -20.82,-23.11 -17.19,-25.54 -10.49,-29.76 -0.84,-28.22 -6.33,-29.3 -2.04,-30.04 -12.14,-27.43 -19.82,-24 -23.14,-21.12 -29.01,-13.72 -25.42,-18.7 -21.51,-22.44 -20.3,-23.52 -24.85,-4.27 -15.93,27.87 -37.93,24.03 -33.2,-1.96 -28.02,-12.87 -30.2,-9.99 -49.72,-3.78 -11.84,-23.91 -6.67,-28.97 -31.38,-1.36 -28.25,15.25 -22.31,21.59 -31.22,-2.68 -28.14,-15.19 -5.11,-4.53 -18.48,-16.27 -20.85,-23.05 -21.61,-22.11 -24.85,-19.53 -21.17,-22.75 -13.7,-27.12 -16.92,-25.7 -22.15,-21.51 -17.14,-23.52 -2.1,-29.95 -10.28,-28.49 -15.02,-26.37 -12.03,-28.31 12.87,-26.26 4.51,-29.81 -4.41,-17.43 -3.02,-11.98 -18.64,-23.59 -27.5,-17.15 -27.24,-16.55 -29.48,-12.52 -30.96,-9.75 -31.5,-8.08 -30.24,-10.8 -29.14,-13.61 -32.08,-9.22 -29.36,-32.67 -10.29,-28.87 -8.85,-28.81 -11.62,-27.95 -14.24,-26.92 -13.93,-27.04 -13.1,-27.28 -19.19,-24.33 -19.84,-0.2 12.27,31.17 8.67,28.82 8.28,29.23 -0.18,30.49 -17.33,20.39 -30.94,-11.7 -23.95,-20.19 -5.39,-5.98 -14.92,-16.59 -29.05,-14.04 -26.84,-17.53 -16.26,-25.17 -16.74,-26.53 -28.32,-4.97 8.33,29.54 9.27,28.59 -33.2,6.57 -19.37,-24.25 -12.81,-27.29 -5.07,-2.36 5.49,-797.64 v -72.29 l -0.24,-745.86 -7.93,-404.39 -1.89,-95.5 -0.96,-47.26 -41.03,-2084.89 -1,-47.77 -0.2,-11.05 -39.94,-2013.6"
       id="path3894"
       inkscape:connector-curvature="0"
       style="fill:#75aadb;fill-opacity:1;fill-rule:evenodd;stroke:#ffffff;stroke-width:38.7194858;stroke-linejoin:round;stroke-miterlimit:4;stroke-dasharray:none;stroke-opacity:1"
       inkscape:label="Bermejo">
      <title
         id="title830">Bermejo</title>
    </path>
    <path
       d="m -302681.09,135041.67 v 0 l 44.72,89.3 5.65,33.45 6.89,71.59 0.72,7.46 -23.61,41.65 -61.5,54.83 -77.88,20.33 -35.13,9.17 -17.04,4.44 -28.5,7.43 -69.37,26.09 -31.42,41.64 8.27,54.97 121.48,117.07 2.02,40.61 -3.54,13.49 -7.27,27.63 -56,37.15 -101.51,27.38 -68.87,37.68 -3.33,14.8 -12.59,55.55 8.81,46.15 34.38,45.1 158.63,86.53 8.73,46.14 -3.94,12.48 0.46,2.41 -16.68,52.99 -139.97,55.28 -24.09,9.5 -76.48,14.72 -50.52,19.48 -43.24,36.61 -159.05,169.12 -174.81,111.6 -49.87,17.24 -26.11,9.03 -119,68.62 -82.15,32.31 -57.13,13.84 -11.98,-2.15 -12.95,-1.8 -44.8,-9.86 h -7.97 l -10.92,1.78 -13.92,3.57 -3.92,1.09 -42.08,1.63 -44.6,20.02 -12.13,5.44 -56.2,37.06 -62.08,48.91 -26.69,37.66 -40.04,70.05 -2.8,36.87 25.8,56.38 -4.53,26.28 -1.02,0.75 -2.43,14.15 -22.38,16.52 -55.56,-2.4 -8.19,-0.35 -44.08,-9.04 -20.16,-4.13 -74.82,8.1 -5.27,13.52 18.81,22.74 39.95,27.35 99.47,45.55 64.86,46.59 13.8,65.91 -6.65,56.79 -1.96,2.13 -1.5,12.77 -38.05,41.16 -26.01,14.22 -42.18,10.02 -143.97,58.4 -33.64,28.13 -11.2,64.65 3.85,25.12 69.07,106.87 12.35,92.17 -4.02,10.74 0.56,4.17 -55.73,148.89 -30.24,38.42 -99.7,37.46 -45.52,25.76 -12.49,18.53 -26.06,90.02 -0.7,-0.54 -323.6,-250.78 -260.01,10.18 -3.82,0.11 -79.18,3.08 -29.22,9.48 -763.91,-24.13 -102.09,-2.98 -1.52,-0.1 -6.65,-888.66 -332.86,-0.7 1.44,-74.83 -280.05,-2.72 -616.75,-6.33 -87.38,-0.94 -5.22,137.45 -98.93,1.09 -782.67,8.08 -0.2,-875.03 v -175.64 l 0.1,-109.89 v -22.29 l 1.04,-935.63 v -11.24 l 973.36,-3.58 706.95,-3.34 h 1.06 l -0.9,-720.81 -0.32,-295.85 463.37,8.35 129.11,4.83 1416.93,12.36 h 1.76 l 1.3,-144.23 10.67,10.43 12.02,9.52 13.3,7.87 13.31,7.69 11.18,10.31 11.83,9.71 12.88,8.47 13.78,7.25 14.48,5.94 15.02,4.92 15.52,5.05 15.62,3.61 14.42,-2.97 13.46,-7.82 13.43,-8.9 14.1,-6.19 16.16,0.99 15.38,-2.61 14.8,-5.63 13.96,-6.92 12.12,-9.43 11.93,-9.95 11.7,-10.31 12.82,-7.74 15.62,-2.62 16.16,2.5 13.56,6.7 12.57,9.23 12.56,9.29 12.15,9.68 12.36,9.25 14.16,5.9 5.07,1.28 10.07,2.6 15.52,3.1 15.88,2.72 15.72,2.81 15.46,3.44 15.02,4.62 14.4,6.14 14.18,6.89 14.2,6.56 14.6,5.41 15.28,3.82 15.58,3.02 15.72,2.75 15.54,3.05 15.28,3.97 15.04,4.86 14.9,5.06 15.02,4.78 15.64,3.04 16.02,1.75 13.92,5.97 12.31,9.1 11.94,9.86 12.76,8.76 13.69,7.19 14.3,6.41 14.6,5.92 14.66,5.4 15.22,4.52 14.98,4.82 13.64,7.38 13.36,7.77 15.4,3.95 15.52,3.57 14.2,6.26 12.93,8.97 9.96,11.02 6.81,12.87 5.08,13.95 4.15,14.05 2.56,14.19 1.74,14.37 2.65,14.29 3.8,14.06 3.21,14.11 1.28,14.4 0.14,14.55 -1.68,14.36 -3.79,13.84 -5.31,13.6 -5.94,13.47 -5.89,13.53 -5.51,13.73 -6.03,14.33 1.2,13.33 6.69,12.41 8.68,12.15 9.73,12.1 9.61,11.97 8.89,12.02 6.03,13.42 5.17,13.62 0.18,14.32 2.82,13.47 13.44,8.75 6.01,12.45 1.1,14.84 10.85,10.14 14.96,5.09 15.74,2.76 15.2,4.76 13.9,7.11 10.17,11 9.02,12.24 12.13,8.44 15.54,4.4 15.64,3.51 15.74,2.93 13.1,7.4 11.46,10.22 11.11,10.66 10.55,11.16 10.26,11.46 11.01,10.28 12.76,7.7 14.82,4.54 15.96,2.82 16,2.84 15.36,3.88 15.34,3.99 15.18,4.27 14.96,4.91 13.94,6.93 14.18,6.57 14.42,6.11 14.42,6.24 14.28,6.39 14.19,6.54 14.32,6.25 14.38,6.29 14.42,6.2 14.56,5.9 14.66,5.33 15.4,3.8 15.36,3.87 14.96,5.05 14.84,5.28 15.08,4.6 15.52,3.03 15.92,1.65 15.86,1.37 15.88,1.04 15.9,0.98 15.82,0.94 15.94,0.9 15.91,0.84 15.88,0.99 15.86,1.98 15.8,1.5 15.72,-2.19 15.64,-3.29 15.44,1.87 15.2,4.78 15.36,3.93 15.32,3.97 15.26,4.17 15.14,4.45 15,4.88 14.78,5.33 14.56,5.85 13.88,7.15 14,6.86 14.93,5.74 14.86,5.74 13.64,6.93 11,9.9 8.43,12.53 111.36,179.7"
       id="path3896"
       inkscape:connector-curvature="0"
       style="fill:#75aadb;fill-opacity:1;fill-rule:evenodd;stroke:#ffffff;stroke-width:38.7194858;stroke-linejoin:round;stroke-miterlimit:4;stroke-dasharray:none;stroke-opacity:1"
       inkscape:label="Formosa">
      <title
         id="title832">Formosa</title>
    </path>
    <path
       d="m -308535.97,137105.92 v 0 l 782.67,-8.08 98.93,-1.09 5.22,-137.45 87.38,0.94 616.75,6.33 280.05,2.72 -1.44,74.83 332.86,0.7 6.65,888.66 1.52,0.1 102.09,2.98 763.91,24.13 29.22,-9.48 79.18,-3.08 3.82,-0.11 260.01,-10.18 323.6,250.78 -4.28,14.78 v 3 l -0.18,107.69 16.7,42.69 41.19,52.6 69.05,47.94 28.36,35.04 -4.98,13.04 -5.73,15.02 -34.83,26.58 -63.36,16.81 -60.36,-4.96 -58.42,8.2 -25.11,34.62 3.84,4.86 30.24,38.39 58.12,42.33 16.08,29.47 -3.18,15.01 -9.09,41.95 -3.23,14.99 -51.07,76.23 -10.09,44.76 6.95,32.25 20.13,30.55 40.41,34.58 45.74,63.24 22.19,73.78 13.44,58.45 -1.75,11.21 -7.51,48.1 -1.58,2.97 -1.88,11.96 -19.67,36.84 -38.29,39.93 -4.02,13.22 9.79,21.07 72.88,70.67 3.94,26.32 -4.28,9.6 -6.61,14.88 -30.74,30.03 -39.19,20.71 -49.39,3.05 -133.68,-53.99 -59.35,-9.84 -12.8,41.39 0.16,3.29 7.79,168.46 -11.74,121.97 33.69,91.4 3.8,39.24 3.95,41.08 -3.91,10.11 0.46,4.84 -22.73,58.59 -60.98,43.16 -132.13,-17.99 -39.71,19.09 -2.77,15.77 26.26,49.89 38.35,72.86 -3.91,14.09 0.45,0.87 -5.75,20.67 -25.54,27.41 -126.8,40.73 -26.4,0.37 -28.5,0.42 -20.1,-4.08 -2.54,-5.85 -17.01,-2.71 -16,-0.1 -3.32,0.73 -11.4,-2.31 -54.97,-0.42 -34.08,16.88 -18.51,23.12 1.84,20.41 20.37,35.36 117.29,72.75 56.28,58.11 12.58,40.46 -4.71,10.87 1.26,4.08 -17,39.12 -28.56,20.28 -29.18,7.08 -36.53,-2.45 -56.31,-3.8 -63.74,-15.75 -6.09,0.6 0.58,-14.65 1.2,-30.44 1.08,-22.95 0.24,-23.52 -22.11,-24.08 -23.07,3.6 -18.52,13.88 -12.26,32.49 -4.6,22.91 -7.13,23.93 -16.1,-14.78 -7.93,-22.04 -12.38,-20.58 -20.91,-5.35 -24.31,3.34 -20.13,-6.49 -10.95,-21.83 13.68,-25.55 24.15,-2.64 20.16,-8.75 11.14,-33.12 1.26,-23.3 -0.76,-23.83 -11.7,-19.63 -31.32,0.85 -2.8,23.14 -2.38,24.81 -18.13,9.15 -19.06,-12.88 0.98,-34.04 6.99,-22.19 6.93,-22.32 4.36,-24.12 -14.4,-14.98 -32.12,8.7 -3.66,22.67 -0.32,23.41 -0.48,23.54 -18.03,23.82 -21.11,-10.89 -18.78,-14.35 -12.04,-20.19 9.86,-19.3 13.59,-19.47 -4.22,-33.29 -12.2,-20.27 -17.16,-16.7 -17.16,8.2 -11.22,21.71 -23.01,24.88 -22.75,4.58 -23.37,-1.01 -23.21,-4.78 -12.82,-25.77 5.37,-23.18 1.64,-23.37 -17.38,-28.68 -19.22,-13.39 -21.63,-11.08 -19.33,5.55 -7.03,22.75 12.14,32.17 13.98,21.15 -20.69,16.58 -23.29,1.01 -22.87,-4.26 -22.07,-7.52 -21.39,-9.49 -19.76,-14.42 4.74,-18.02 18.99,-16.07 15.84,-29.74 -14.08,-15.62 -23.45,-2.08 -23.45,1.11 -31.78,0.84 -22.65,-22.49 -16.73,-12.36 -23.87,-16.46 -15.76,-17.31 -11.91,-25.69 -6.51,-24.02 -4.43,-20.49 -23.19,-19.5 -12.09,32.75 -23.6,-3.84 -1.96,-33.11 -7.09,-16.18 -29.2,15.51 -17.32,9.93 -17.68,-18.14 0.9,-21.39 7.59,-22.47 -24.05,-29.75 -48.93,6.81 -15.96,-28.72 -12.37,-16.71 -6.87,-16.28 -0.2,-0.5 -9.72,-16.7 -20.68,-28.04 -20.35,-14.19 -9.07,-17.94 -8.43,-19.17 -3.07,-19.82 -9.83,-43.16 -16.88,-19.76 2.94,-22.38 11.76,-17.03 -21.17,-23.76 -28.22,1.56 -30.14,1.68 -26.85,-0.75 -26.22,-3.23 -30.56,-19.47 -14.34,-13.64 -34.38,-9.72 -5.23,-3.02 -19.2,-11.08 -19.79,-17.22 -12.4,-17.92 -5.22,-9.41 -11.42,-20.47 -16.96,-13.04 -36.35,-5.49 -33.6,1.65 -23.25,7.05 -23.94,-23.22 -19.56,-6.92 -14.36,-16.65 -14.42,-18.49 -23.09,-16.52 -64.74,-16.55 -8.44,-23.41 8.96,-24.88 -11.82,-27.64 -8.27,-42.59 -2.26,-17.48 -5.75,-18 -5.67,-11.74 -4.76,-9.82 -12.74,-41.43 -20.75,-34.05 -35.63,-3.72 -23.93,9.42 -11.19,13.41 -36.13,1.67 -29.28,14.3 -15.16,14.08 -33.24,0.68 -29.76,1.43 -48.2,5.48 -23.56,-6.82 -13.75,-19.77 -8.45,-20.96 -11.42,-40.85 8.43,-20.65 -41.87,-54.86 -1.13,-24.73 -5.64,-17.99 -13.64,-14.88 -12.28,-13.12 -22.53,-18.08 -24.49,-25.28 13.78,-17.06 -20.25,-9.35 -18.76,0.25 -26.86,-1.48 -13.96,-34.14 -37.2,-21.26 -8.28,-16.12 2.13,-32.61 -31.66,-6.26 -29.46,1.05 -23.29,8.79 -25.42,3.91 -31.06,-0.91 -25.89,-0.71 -26.96,-9.28 -35.1,-15.25 -24.26,-11.06 -19.58,-8.84 -24.47,-18.39 -13.62,-16.62 1.16,-51.89 -1.66,-17.51 -0.26,-17.47 -8.43,-22.21 -12.96,-18.53 -13.14,-23.34 -17.8,-25.73 -16.96,-9.39 -26.78,0.35 -20.69,0.89 -34.48,-14.08 -30.12,-5.59 -19.61,-9.42 -26.31,-12.94 -18.25,-12.39 -19.12,-20.22 -6.31,-19.25 -16.34,-14.85 -24.93,-10.52 -17.75,-18.49 -18.86,-11.81 -16.98,-11.91 -12.24,-13.69 -21.39,-15.87 -14.6,-13.81 -16.32,-20.91 -25.41,-37.03 -9.76,-28.27 -21.34,-37.09 -14.8,-48.05 -13.1,-23.96 -21.51,-22.03 -2.96,-3.06 -19.51,-7.55 -24.89,-8.13 -21.55,-5.71 1.1,-510.32 0.98,-434.28 0.18,-87.85 253.54,-2.42"
       id="path3898"
       inkscape:connector-curvature="0"
       style="fill:#75aadb;fill-opacity:1;fill-rule:evenodd;stroke:#ffffff;stroke-width:38.7194858;stroke-linejoin:round;stroke-miterlimit:4;stroke-dasharray:none;stroke-opacity:1"
       inkscape:label="Laishí">
      <title
         id="title834">Laishí</title>
    </path>
    <path
       d="m -323813.64,123019.67 v 0 l 1,47.77 41.03,2084.89 0.96,47.26 1.89,95.5 7.93,404.39 0.24,745.86 v 72.29 l -5.49,797.64 -23.05,-10.79 -33,-2.45 -31.63,-7.53 -28.09,-14.79 -23.57,-21.73 -28.86,-3.8 -4.53,30.18 -13.78,22.37 -31.12,-7.99 -22.53,-41.13 -2.6,-27.32 -9.47,-28.52 -21.83,-22.35 -29.22,-12.36 -31.14,-9.25 -25.77,-18.43 -22.17,-22.16 -7.05,-28.91 -13.36,-28 -27.6,-13.37 -32.46,-6.86 -32.04,-5.76 -30.88,-9.27 -29.86,-11.94 -30.66,-10.31 -30.58,-10.42 -29.58,-12.39 -26.98,-16.86 -23.97,-20.43 -9.55,-27.16 0.82,-31.08 -19.93,-16.75 -32.84,3.38 -22.29,20.78 -26.57,16.33 -32.51,-1.13 -31.44,-7.9 -32.3,-2.55 -29.8,-12.05 -29.5,-10 -26.45,18.16 -23.13,21.14 -29.96,11.49 -26.02,-12.82 -1.68,-31.1 -8.61,-28.62 -26.34,-16.63 -32.6,-0.62 -32.5,2.59 -32.24,4.41 -32.29,2.65 -32.68,-1.71 -31.98,-5.26 -29.26,-12.98 -29.26,-12.9 -31.58,-7.54 -27.42,-16.94 4.95,-24.49 21.37,-19.67 22.95,-18.8 25.53,-33.55 -24.83,-29.95 -23.59,19.63 -20.43,23.51 -26.29,17.27 -28.2,15.22 -27.72,15.62 -27.25,16.46 -28.56,15.13 -32.24,-2.16 -16.36,-24.13 -7.01,-29.23 -25.26,-18.42 -19.28,-13.4 19.26,-24.93 -4.3,-26.47 -31.9,6.7 -25.38,18.03 -20.72,23.12 -12.92,27.52 -16.58,25.77 -22.83,19.46 -31.71,-11.2 1.13,-27.13 6.54,-29.27 0.49,-29.86 20.22,-24.56 -1.74,-25.65 -7.69,-28.55 12.14,-29.05 -24.56,-22.93 -32.8,5.49 -27.44,16.97 -32.86,2.1 -10.43,-25.51 22.05,-21.33 24.37,-19.2 -28,-26.96 -30.36,-10.9 -31.86,-6.95 -26.88,-16.79 -32.18,0.32 -32.6,-2.97 -31.18,-8.47 -20.09,-22.55 -16.28,-27.02 -42.48,0.44 -31.22,8.45 -31.16,9.13 -32.16,-3.89 -31.08,-8.96 -15.62,-24.16 -30.94,9.77 -32.95,-1.18 -31.28,-7.08 -8.29,-27.64 -25.31,-14.02 -18.43,-24.01 -7.35,-30.17 -30.22,-6.68 -33.42,-1.02 -49.92,4.54 -0.77,-23.48 27.96,-16.73 20.11,-23.57 21.99,-20.13 -18.59,-22.4 -29.32,11.81 -25.37,19.63 -27.96,12.81 -31.5,6.57 -28.64,14.23 -26.19,17.81 -18.32,6.54 0.1,-48.28 0.64,-312.94 2.2,-64.52 5.75,-171.38 -0.16,-28.06 -0.1,-13.38 v -1.59 -15.08 l -0.1,-15.01 -0.1,-14.96 -0.1,-15.05 v -15.04 l -0.1,-15.03 v -14.97 l -0.12,-15.05 v -15.01 l -0.12,-15.08 v -14.95 l -0.12,-14.99 -0.1,-15.08 -0.1,-15.01 -0.1,-15 -0.1,-15.02 -0.1,-15.05 v -15.01 -14.98 l -0.1,-15.06 v -15.05 l -0.1,-15.03 -0.1,-15 v -15 l -0.1,-15.02 -0.1,-15.04 v -15.01 l -0.1,-15.04 -0.16,-15.01 v -15.04 -14.97 l -0.12,-15.01 -0.1,-15.1 -0.1,-14.97 v -15.01 l -0.1,-15 -0.1,-15.08 -0.1,-15 -0.1,-14.95 -0.1,-15.07 v -15.01 l -0.1,-15.05 -0.1,-14.98 0.26,-142.57 0.18,-129.73 0.38,-248.43 0.22,-129.11 0.1,-60.27 0.2,-151.31 0.1,-37.54 v -26.23 l 0.2,-102.21 0.37,-249.7 0.2,-127.85 0.38,-250.31 0.22,-127.24 0.26,-148.34 2628.82,-4.24"
       id="path3900"
       inkscape:connector-curvature="0"
       style="fill:#75aadb;fill-opacity:1;fill-rule:evenodd;stroke:#ffffff;stroke-width:38.7194858;stroke-linejoin:round;stroke-miterlimit:4;stroke-dasharray:none;stroke-opacity:1"
       inkscape:label="Matacos">
      <title
         id="title836">Matacos</title>
    </path>
    <path
       d="m -316109.92,125809.14 v 0 l 16.06,12.31 59.24,16.71 123.24,64.51 58.8,11.68 17.38,3.43 96.69,0.25 31.12,-9.11 484.21,-20.61 86.42,-7.8 56.95,-5.13 111.37,10.59 198.16,-15.48 217.17,-80.82 77.14,-42.67 25.13,-6.83 47.46,-12.94 244.11,140.51 322.76,185.76 609.54,349.9 610.25,349.4 258.4,147.68 198.42,101.46 160.51,89.93 143.77,80.58 20.28,18.65 320.33,174.75 25.83,26.86 57.54,33.59 16.26,2.44 19.34,27.03 -3.06,24.14 14.28,31.98 40.83,40.79 -2.22,46.91 57.61,69.12 118.9,94.85 37.69,61.3 27.82,7.55 72.23,2.57 77.12,27.65 32.51,27.83 44.27,95.93 44.28,61.07 22.15,54.91 40.09,99.32 55.36,41.51 78.32,22.78 59.32,41.37 50.83,24.82 35.26,28.93 52.01,21.18 139.8,15.97 58.8,26.95 3.03,7.64 12.97,32.7 70.06,79.44 94.44,30.59 36.87,2.43 151.1,68.39 56.49,66.64 74.8,31.21 33.9,26.52 13.22,35.61 3.97,4.49 12.55,14.18 62.71,24.38 33.72,21.72 21.07,34.15 44.78,2.12 21.81,19.7 35.54,1.24 32.51,-8.29 34.3,-29.97 129.59,52.16 62.32,13.53 18.85,11.4 30.82,47.02 21.63,14.9 40.89,10.53 37.51,9.66 80.33,68.18 59.19,0.4 36.53,25.21 68.13,-5.93 46.7,16.42 44.9,36.93 104.36,43.3 35.65,34.81 40.19,17.86 55.99,49.74 66.87,26.54 55.05,43.07 2.49,1458.4 0.52,307.52 -77.38,58.23 -773.18,580.88 -1118.91,837.31 -25.6,19.19 -1900.34,1413.34 v 7.8 l -0.76,198.43 -5.19,1299.02 -2.38,603.15 -0.24,536.82 -2.14,5.51 -6.95,17.87 0.1,5.04 12.47,51.75 -9.81,21.2 -13.1,25.44 -9.51,3.85 -19.14,7.82 -17.89,12.23 -2.42,21.72 -51.75,-18.34 11.96,-16.96 13.13,-22.38 12.4,-30.91 -15.46,-14.95 -18.3,-25.79 -23.48,-10.06 -20.7,-1.66 -36.79,-8.11 -2.22,-19.92 25.27,-15.89 -12.38,-36.08 -12.11,-12.55 -0.18,-18.74 2.48,-21.72 20.25,-42.98 21.32,-15.8 8.42,-23.63 -6.21,-21.08 9.81,-19.35 13.82,-24.81 -19.41,-6.49 -18.7,1.3 -23.37,-1 -3.51,-22.93 -3.06,-39.11 18.42,-29.73 -9.57,-22.87 -16.78,-11.28 11.81,-21.84 11.12,-24.84 -8.39,-41.54 -12.08,-34.57 22.43,-3.5 2.46,-18.13 -34.16,-19.03 -30.58,12.87 -29.24,12.36 -20.05,0.13 -29.41,-7.06 -19.97,-0.4 -21.25,14.59 -14.92,-24.58 -4.26,-28.92 -12.78,-15.03 -8.25,-28.26 -14.18,-12.91 -31.1,-1.83 -26.84,-10.37 4.85,-29.93 0.62,-29.36 -29.2,-4.76 4.27,-27.21 11.93,-23.74 -26.91,-3.18 -27.92,4.63 -24.41,-20.22 -14.14,-25.01 -0.66,-28.82 -18.1,-19.06 -21.71,-7.85 11.63,-28.33 17.89,-24.84 -5.57,-26.69 -32.52,-3.49 -1.65,-28.04 -27.67,-16.32 -41.66,-13.69 -6.95,-22.3 -30.5,-10.56 -22.55,-16.18 -19.06,-22.66 -2.04,-29.72 -21.37,-17.36 -30.12,-6.56 -25.21,-8.06 -1.01,-28.39 -13.79,-16.54 -31.07,13.75 -28.63,1.27 -15.1,-22.71 11.23,-28.49 16.54,-22.94 0.34,-24.41 -30.62,8.76 -29.07,11.6 -31.41,6.48 -28.23,-4.41 -12.04,-27.22 -16.06,-24.71 -23.05,-19.72 -17.44,-24.23 -17.47,-24.49 -25.21,-16.73 -25.27,-18.51 11.51,-20.74 -23.95,-18.53 -30.48,2.24 -25.45,17.16 -24.86,-12.83 8.04,-28.5 12.21,-27.5 9.65,-27.06 -12.25,-24.49 -19.49,-7.75 9.17,-26.98 19.83,-22.75 20.75,-22.44 -24.93,-7.23 -27.98,-9.99 -19.65,-24.03 -26.07,-12.94 -30.98,-7.73 -26.64,-15.5 -28.44,-12.84 -29.23,-11.91 -23.25,-19.13 -18.13,-23.92 -17.46,-24.13 -20.55,-22.79 -27.69,-11.27 -32.37,-2.74 -31.16,-5.99 -30.86,-7.43 -30.14,-10 -21.35,-19.83 -2.58,-29.39 -16.26,-23.24 -18.51,-24.29 -27.29,-6.96 -31.98,5.33 -24,-16.29 -21.46,-23.14 -20.97,-22.87 -23.09,-17.56 -32.3,1.68 -29.86,-10.45 -30.92,1.32 -31.13,-3.01 -10.51,-25.98 -29.06,-12.08 -23.37,-19.31 -30.84,-7.53 -8.45,-28.39 -30.28,-3.46 21.37,-36.45 32.14,-7.07 -14.08,-21.83 -31.44,-8.03 -20.27,-16.66 -11.89,-14.3 -28.18,-12.59 -7.13,-28.44 -20.87,-6.78 -28.81,12.52 -31.58,-1.53 -30.73,-8.74 -28.13,-15.95 -28.04,0.67 -29.92,7.67 -31.14,-10.69 -1.42,-25.25 32.24,-13.5 -14.62,-15.09 -21.95,-24.55 -22.67,-6.34 -30.92,13.74 -16.6,7.98 -12.76,-12.12 -7.29,-24.52 -4.82,0.34 -44.4,2.69 -32.18,-2.34 -30.88,-7.37 -30.1,-9.57 -30.8,-8.05 -25.54,-16.55 -26.93,-18.32 -27.46,-11.01 6.09,28.91 -31.06,1.3 -24.05,15.52 -11.44,27.6 -26.73,-3.74 -19.29,-23.49 -31.18,-11.66 -20.19,-17.76 1.02,-30.57 5.47,-10.25 8.19,-15.3 17,-24.79 9.56,-27.44 6.75,-28.22 -34.19,9.95 -6.61,-24.09 12.02,-27.34 -10.16,-19.89 -36.64,25.77 -3.21,-27.06 3.71,-9.9 6.49,-17.45 14.11,-39.1 -27.87,15.53 -23.77,-10.18 -16.14,-8.03 -19.87,22.89 -14.82,-5.59 -14.08,-5.27 -10.65,-26.82 -3.05,-29.04 v -29.06 l 0.62,-29.05 -1.16,-28.65 -11.97,-26.03 -19.03,-23.43 -25.27,-17.61 -18.31,-23.4 -17.26,-25.55 13.02,-23.93 18.18,-24.99 -2.78,-26.31 -22.75,-21.73 13.66,-22.67 31.66,-4.46 9.59,-21.96 -18.5,-25.23 -21.47,-22.55 -2.12,-24.71 -27.06,-12.02 -29.94,2.4 5.17,-25.32 28.66,-15.26 22.73,-19.32 -15.41,-19.93 -31.02,-10.27 -29.94,-9.76 -29.47,-11.42 -29.7,-9.81 -31.56,3.22 -30.34,9.01 -24.24,20.59 -27.31,6.82 -14.42,-21.68 11.93,-29.01 12.1,-26.8 -17.64,-18.41 -20.53,25.54 -26.21,13.09 -33.13,-6.91 -14.98,-22.74 1.54,-29.97 20.35,-21.71 29.14,-12.83 17.64,-23.96 1.16,-31.72 -26.15,-0.62 -33.72,9.92 -12.36,-18.77 -5.47,-31.26 -1.8,-27.44 14.3,-26.67 -12.56,-24.49 -32.62,-2.67 -25.76,13.48 -22.46,21.28 -27.16,15.19 -31.7,3.39 -21.71,-20.67 -14.24,-16.82 -4.99,-5.98 -28.39,-13.18 -26.4,-17.68 19.49,-16.91 28.23,-13.4 25.7,-16.11 13.58,-25.83 -0.24,-29.44 16.6,-22.18 17.28,-8.48 10.89,-19.92 -29.07,-7.32 -7.15,-1.74 -11.78,-25.94 -24.55,9.95 -13.78,26.86 -21.19,14.67 -11.59,-27.96 -1.52,-3.52 -10.1,-23.31 -10.51,-27.3 -6.99,-28.66 4.15,-29.99 -30.61,-13.81 -20.66,-19.29 -29.66,-8.51 17,-24.77 10.94,-24.73 -22.67,-14.73 -32.79,1.59 -31.6,3.15 -28.78,-11.25 -27.43,-14.59 -27.2,-15.27 -27.84,-14.39 -19.14,-17.09 -1.96,-25.31 -32.55,3.49 -31.4,8.13 -15.88,-16.09 10.19,-29.75 13,-26.31 16.54,-24.71 18.99,-24.23 -5.89,-28.7 -22.83,8.49 -10.51,27.31 -21.69,20.99 -30.38,7.56 -14.68,-25.78 -10.88,-27.19 -9.19,-27.66 -6.23,-28.32 -8.23,-28.05 -9.89,-28.09 -15.3,-24.16 -20.85,-25.37 -35.64,9.89 -28.76,-10.38 -29.24,-14.87 -27.5,-14.47 -26.67,-16.49 -27.82,-18.49 28.6,-26.11 7.11,-23.55 -26.8,-16.52 -5.04,-28.71 -29.02,-11.38 -24.53,-17.8 -13.68,-27.43 -2.54,-26.49 16.18,-8.79 -5.47,-22.33 -21.09,-24.48 -15.04,-25.39 -8.79,-23.67 46.2,-22.08 2.06,-19.78 -30.52,-8.52 -30.88,10.39 -27.57,-9.24 -26.96,-17 -30.56,-9.23 -26.89,-12.96 -14.1,-19.92 -3.33,-4.74 -14.48,-27.32 -18,-20.44 -30.34,9.67 -14.96,25.62 -15.42,25.88 -16.76,24.85 -23.37,18.2 -31.34,9.4 -25.06,-9.2 0.46,-31.79 -5.02,-7.82 -6.01,-9.48 -9.95,-0.1 -24.46,-0.1 -28.61,-14.26 -6.27,-24.56 17.74,-20.73 -17.66,-25.7 -27.7,10.78 -27.05,17.14 -24.62,7.7 -13.09,-13.66 -17.43,-11.01 -11.25,13.53 -23.81,20.38 -26.74,-13.43 -28.44,-14.29 -29.77,-10 -30.12,-9.98 -29.58,-10.79 -8.83,-26.55 -12.82,-16.17 -29.1,10.82 -32.5,0.6 -17.33,-21.18 24.74,-29.6 -8.97,-20.09 -32.77,4.77 -13.98,25.86 -13.31,11.89 -19.59,-5.23 -3,-31.52 13.45,-24.58 35.55,-28.71 13.16,-28.38 -15.18,-16.5 -32.56,-6.79 -30.81,-6.48 -30.94,5.16 -31.38,3.59 -31.14,-5.38 -29.52,-11.95 -30.38,-4.42 -32.06,7.04 -27.26,-9.35 -24.39,-20.05 -31.2,-5.59 -29.74,-8.78 6.31,-20.83 13.4,-25.44 -20.03,-20.23 -26.85,-17.38 -28.18,-13.75 -29.18,-10.88 -13.04,-26.23 -4.6,-28.82 -12.36,-25.25 -30.12,8.8 -21.13,-13.96 -4.82,-26.5 -28.62,-14.59 -21.67,-0.79 -8.41,-0.32 -30.52,10.03 -30.26,-8.08 -30.22,-9.63 -23.75,0.1 h -6.37 l -31.68,-0.11 -6.41,-4.69 -18.32,-13.21 -29.98,-8 -27.94,-12.87 -27.98,-15.56 -10.27,-23.93 -8.71,-27.22 -23.69,-19.41 -17.19,-24.05 -23.61,-14.74 -29.6,-2.82 -18.26,-1.87 -27.74,-14.02 -28.05,-13.31 -24.41,-18.34 -14.22,-18.18 14.5,-21.87 -29.76,-12.72 -31.4,-4.9 -32.13,-3.84 -28.25,-9.92 -17.91,-14 -26.61,18.28 -30.48,-4.76 -22.69,-19.77 -19.91,-15.9 -0.88,-30.07 1.06,-29.16 -0.56,-28.56 -19.06,-23.27 -27.6,-14.26 -30.86,-5.57 -31.72,3.53 -33.11,-6.98 -21.87,-13.57 23.82,-21.48 29.67,-13.27 23.8,-16 -11.8,-26.84 -28.6,-12.61 -28.92,-12.87 -27.21,-14.78 -20.83,-21.5 -18.68,-23.92 -21.55,-20.24 -30.1,-8.93 -31,-7.91 -28.94,-10.9 -19.85,-22.81 -29.7,-10.53 -21.42,-19.46 -20.51,-20.16 -31.3,-7.66 -12.62,-24.66 -2.78,-28.81 -19.97,-19.61 -32.72,1.48 -30.98,-6.5 -18.53,-20.22 30.22,-8.37 8.01,-27.94 6.29,-23.32 -30.98,-11.03 -28.6,-11.87 -32.24,-1.84 -11.71,-26.58 -26.22,-5.41 -31.1,6.86 -31.04,-7.18 -23.45,-17.18 -7.83,-29.17 -9.13,-28.26 -26.02,-12.34 -28.72,-12.4 -27.89,-13.69 -24.75,-15.17 -14.58,-10.59 -18.19,-22.28 4.57,-29.38 -14.48,-25.03 -24.69,-19.22 -27.14,6.37 -14.48,-26.7 1.72,-28.34 -10.21,-25.51 -16.08,-25.17 -23.69,-14.65 -23.33,19.03 -19.43,24.3 -20.83,-9.26 -22.24,-21.35 -26.8,-15.66 -23.79,-17.37 -3.75,-28.85 -16.88,-24.49 -1.76,-28.75 -4.23,-22.63 -33.22,2.68 -21.69,-15.85 1.06,-11.21 1382.1,-1377.02 71.5,-71.46 196.45,-196.49 1587.55,-1583.83 777.43,-779.61"
       id="path3902"
       inkscape:connector-curvature="0"
       style="fill:#75aadb;fill-opacity:1;fill-rule:evenodd;stroke:#ffffff;stroke-width:38.7194858;stroke-linejoin:round;stroke-miterlimit:4;stroke-dasharray:none;stroke-opacity:1"
       inkscape:label="Patiño">
      <title
         id="title838">Patiño</title>
    </path>
    <path
       d="m -308356.5,129405.82 v 0 l 53.77,42.07 31.15,53 23.91,5.18 16.78,-7.79 40.87,2.17 65.85,32.56 22.39,0.41 85.97,72.71 69.23,80.48 28.36,10.46 63.9,23.55 197.97,12.19 120.75,22.13 54.36,-21.18 30.54,6.11 35.68,33.58 80.51,125.69 25.45,17.32 3.05,2.09 42.07,-1.53 28.3,14.61 34.34,62.46 29.92,21.74 55.86,12.39 79.98,-2.16 171.27,-4.63 95.72,-9.54 117.52,-22.37 5.05,1.4 90.97,25.1 109.53,63.23 73.96,33.28 27.89,4.96 41.74,-8.76 30.86,12.05 64.58,58.86 90.32,15.84 108.75,62.53 26.57,15.28 73.68,54.89 15.58,23.45 6.83,28.65 -14.36,66.33 -3.21,14.81 2.41,23.97 15.02,11.43 h 61.96 l 29.96,20.49 69.77,111.53 41.77,36.07 5.33,939.06 4.33,765.28 3.44,587.97 -570.99,1.76 -146.97,3.5 -215.69,0.9 -254.01,1.04 0.4,399.56 -1489.16,-983.08 -859.33,-570.09 773.18,-580.88 77.38,-58.23 -0.52,-307.52 -2.49,-1458.4"
       id="path3904"
       inkscape:connector-curvature="0"
       style="fill:#75aadb;fill-opacity:1;fill-rule:evenodd;stroke:#ffffff;stroke-width:38.7194858;stroke-linejoin:round;stroke-miterlimit:4;stroke-dasharray:none;stroke-opacity:1"
       inkscape:label="Pilagás">
      <title
         id="title840">Pilagás</title>
    </path>
    <path
       d="m -305681.4,130664.95 v 0 l 3.55,3.06 60.3,20.53 0.34,7.19 21.53,9.6 57.91,25.81 67.55,62.32 44.46,76.41 24.95,25.48 30.4,1.23 34.93,-14.58 52.47,-62.15 73.96,-53.4 32.76,-60.18 66.57,-42.28 17.02,-19.83 34.2,-39.88 80.63,-51.26 44.9,1.84 43.82,-20.97 29.36,7.26 21.73,13.56 4.78,44.29 52.53,50.81 53.57,17.11 61.74,76.88 32.12,9.56 41.82,-7.69 67.37,2.11 24.79,21.85 34.87,11.83 11.27,41.63 18.29,14.08 17.32,13.34 22.83,35.14 5.55,14.04 23.03,58.16 41.29,7.95 43.78,31.89 38.01,-5.14 50.36,-22.48 38.48,4.46 18.96,10.05 99.41,142.64 22.87,8.68 29.94,-8.42 26.92,10.92 13.07,-2.95 8.49,-14.76 16.67,2.32 63.08,8.84 90.58,-9.73 80.82,-20.16 10.78,4.36 3.18,11.73 -21.65,36.92 2.73,4.26 28.76,44.93 4.32,33.48 -3.3,14.83 -4.33,19.13 52.85,51.95 33.35,7.04 51.22,-32.19 34.01,-6.21 55.87,8.5 18.31,-3.17 28.09,-19.2 19.69,-2.03 54.81,13.35 169.1,7.19 119.8,18.57 34.33,13.02 21.2,28 24.22,49.53 20.66,56.89 32.59,58.2 74.07,54.69 61.68,44.38 77.07,34.7 76.62,25.69 28.43,13.26 25,24.23 18.18,46.16 62.44,58.74 17.45,31.76 8.63,53.78 12.17,44.6 -3.78,13.65 0.32,1.16 -6.53,23.65 1.88,37.67 27.82,40.33 41.71,39.77 41.14,28.95 22.79,18.9 36.83,61.62 36.95,63.41 55.03,28.38 49.38,34.01 32.61,16.66 51.7,1.44 52.57,-20.29 0.52,-0.7 36.23,-13.65 10.52,6.94 -1.35,19.11 -0.96,13.47 -2.98,7.78 -0.5,7.04 -22.27,58.32 -7.43,54.29 7.41,101.52 v 0.61 l 21.71,30.27 10.43,14.5 28.46,20.17 40.21,13.47 65.89,37.86 15.74,57.41 -4.01,12.9 0.54,1.94 -7.35,23.64 2.51,49.03 20.64,28.17 71.4,20.19 34.06,19.56 92.81,53.27 5.02,2.87 79.91,60.48 48.9,79.25 82.37,106.85 9.71,63.48 -0.94,43.22 -0.8,37.85 -0.14,6.19 -3.22,8.71 -0.28,6.13 -74.86,202.45 1.56,30.04 37.99,114.59 -3.67,52.46 -3.06,8.6 -0.44,6.25 -16.78,47.21 -48.73,48.6 -90.13,-7.76 -29.5,12.18 -20.47,178.64 -2.02,2.01 -1.47,12.84 -30.48,30.36 -68.97,-1.46 -41.35,-4.27 -33.82,-13.04 -76.23,-64.15 -33.82,-13.04 -43.8,-0.58 -27.23,11.98 -17.83,29.63 -2.84,53.94 17.24,129.2 -5.55,47.15 -2.08,2.99 -28.8,41.6 -19.46,9.23 -25.51,-6.17 -68.29,-38.07 -33.57,-8.22 -147.07,30.13 -60.96,1.29 -20.53,14.08 -34.69,74.8 -39.23,37.69 -3.82,14.77 -8.19,32.7 5.52,34.6 39.08,38.08 49.3,3.99 89.72,-10.9 18.98,34.1 -3.8,14.29 0.32,0.58 -12.26,46.22 -4.76,11.03 -171.81,146.6 -85.71,38.38 -39.53,6.42 -40.7,-17.6 -53.19,-1.43 -35.91,23.44 -1.38,0.93 -5,33.39 -2.97,19.85 1.78,5.34 23.26,70.63 14.33,28.6 -111.36,-179.7 -8.43,-12.53 -11,-9.9 -13.64,-6.93 -14.86,-5.74 -14.93,-5.74 -14,-6.86 -13.88,-7.15 -14.56,-5.85 -14.78,-5.33 -15,-4.88 -15.14,-4.45 -15.26,-4.17 -15.32,-3.97 -15.36,-3.93 -15.2,-4.78 -15.44,-1.87 -15.64,3.29 -15.72,2.19 -15.8,-1.5 -15.86,-1.98 -15.88,-0.99 -15.91,-0.84 -15.94,-0.9 -15.82,-0.94 -15.9,-0.98 -15.88,-1.04 -15.86,-1.37 -15.92,-1.65 -15.52,-3.03 -15.08,-4.6 -14.84,-5.28 -14.96,-5.05 -15.36,-3.87 -15.4,-3.8 -14.66,-5.33 -14.56,-5.9 -14.42,-6.2 -14.38,-6.29 -14.32,-6.25 -14.19,-6.54 -14.28,-6.39 -14.42,-6.24 -14.42,-6.11 -14.18,-6.57 -13.94,-6.93 -14.96,-4.91 -15.18,-4.27 -15.34,-3.99 -15.36,-3.88 -16,-2.84 -15.96,-2.82 -14.82,-4.54 -12.76,-7.7 -11.01,-10.28 -10.26,-11.46 -10.55,-11.16 -11.11,-10.66 -11.46,-10.22 -13.1,-7.4 -15.74,-2.93 -15.64,-3.51 -15.54,-4.4 -12.13,-8.44 -9.02,-12.24 -10.17,-11 -13.9,-7.11 -15.2,-4.76 -15.74,-2.76 -14.96,-5.09 -10.85,-10.14 -1.1,-14.84 -6.01,-12.45 -13.44,-8.75 -2.82,-13.47 -0.18,-14.32 -5.17,-13.62 -6.03,-13.42 -8.89,-12.02 -9.61,-11.97 -9.73,-12.1 -8.68,-12.15 -6.69,-12.41 -1.2,-13.33 6.03,-14.33 5.51,-13.73 5.89,-13.53 5.94,-13.47 5.31,-13.6 3.79,-13.84 1.68,-14.36 -0.14,-14.55 -1.28,-14.4 -3.21,-14.11 -3.8,-14.06 -2.65,-14.29 -1.74,-14.37 -2.56,-14.19 -4.15,-14.05 -5.08,-13.95 -6.81,-12.87 -9.96,-11.02 -12.93,-8.97 -14.2,-6.26 -15.52,-3.57 -15.4,-3.95 -13.36,-7.77 -13.64,-7.38 -14.98,-4.82 -15.22,-4.52 -14.66,-5.4 -14.6,-5.92 -14.3,-6.41 -13.69,-7.19 -12.76,-8.76 -11.94,-9.86 -12.31,-9.1 -13.92,-5.97 -16.02,-1.75 -15.64,-3.04 -15.02,-4.78 -14.9,-5.06 -15.04,-4.86 -15.28,-3.97 -15.54,-3.05 -15.72,-2.75 -15.58,-3.02 -15.28,-3.82 -14.6,-5.41 -14.2,-6.56 -14.18,-6.89 -14.4,-6.14 -15.02,-4.62 -15.46,-3.44 -15.72,-2.81 -15.88,-2.72 -15.52,-3.1 -10.07,-2.6 -5.07,-1.28 -14.16,-5.9 -12.36,-9.25 -12.15,-9.68 -12.56,-9.29 -12.57,-9.23 -13.56,-6.7 -16.16,-2.5 -15.62,2.62 -12.82,7.74 -11.7,10.31 -11.93,9.95 -12.12,9.43 -13.96,6.92 -14.8,5.63 -15.38,2.61 -16.16,-0.99 -14.1,6.19 -13.43,8.9 -13.46,7.82 -14.42,2.97 -15.62,-3.61 -15.52,-5.05 -15.02,-4.92 -14.48,-5.94 -13.78,-7.25 -12.88,-8.47 -11.83,-9.71 -11.18,-10.31 -13.31,-7.69 -13.3,-7.87 -12.02,-9.52 -10.67,-10.43 -1.3,144.23 h -1.76 l -1416.93,-12.36 -129.11,-4.83 -463.37,-8.35 -0.56,-516.58 v -50.46 -21.61 l -0.4,-399.56 254.01,-1.04 215.69,-0.9 146.97,-3.5 570.99,-1.76 -3.44,-587.97 -4.33,-765.28 -5.33,-939.06"
       id="path3906"
       inkscape:connector-curvature="0"
       style="fill:#75aadb;fill-opacity:1;fill-rule:evenodd;stroke:#ffffff;stroke-width:38.7194858;stroke-linejoin:round;stroke-miterlimit:4;stroke-dasharray:none;stroke-opacity:1"
       inkscape:label="Pilcomayo">
      <title
         id="title842">Pilcomayo</title>
    </path>
    <path
       d="m -309204.05,131810.85 v 0 l 859.33,570.09 1489.16,983.08 v 21.61 50.46 l 0.56,516.58 0.32,295.85 0.9,720.81 h -1.06 l -706.95,3.34 -973.36,3.58 v 11.24 l -1.04,935.63 v 22.29 l -0.1,109.89 v 175.64 l 0.2,875.03 -253.54,2.42 -0.18,87.85 -0.98,434.28 -1.1,510.32 -13.42,-3.52 -21.55,-8.16 -19.38,-0.97 -18.99,-18.47 -63.92,-17.87 -22.13,-7 -29.38,5.78 -20.69,1.47 -26.85,-2.73 -18.16,-3.95 -17.53,-11.85 -21.55,-7.6 -27.67,-13.51 -37.63,-13.45 -21.93,11.13 -29.88,13.03 -38.15,4.68 -18.7,0.21 -20.83,-5.2 -16.84,-8.25 -20.97,-14.25 -16.98,-14.22 -13.48,-11.33 -15.64,-17.88 -17.59,-13.07 -20.3,-13.64 -41.96,-35.67 -21.99,-41.37 -19.36,0.23 -19.45,1.38 -34.66,6.46 -6.35,-19.89 3.02,-24.69 18.37,-27.4 -54.4,-15.01 -36.24,-8.09 -38.89,-6.77 -20.09,-1.6 -37.55,-5.57 5.81,-17.6 25.37,-4.46 11.74,-20.09 -8.35,-23.97 23.19,-14.76 -4.99,-19.86 -17.52,-14.87 -24.38,-23.85 -49.78,31.31 -17.98,5.07 -29.88,4.85 -17.51,2.87 -35,20.2 -21.27,20.83 -20.57,15.27 -6.37,21.21 -5.76,22.95 -23.78,20.82 -33.96,11.21 -23.33,4.46 -44.08,7.13 -19.99,8.06 -17.2,14.04 -23.15,14.74 -24.77,2.69 -32.68,8.17 -41.34,10.06 -32.68,10.02 -38.71,7.06 -31.32,9.39 -31.36,9.33 -45.46,1.67 -40.88,-9.84 -32.98,-12.88 -29.6,-14.19 -24.91,-11.82 -20.85,-10.04 -16.24,-16.13 -4.45,-31.89 -12.25,-16.79 -21.59,-16.68 3.74,31.31 -13.14,18.27 -27.75,-20.87 -20.63,8.08 -16.9,39.36 -23.33,5.66 -17.55,-10.1 -26.69,2.71 h -1 l -25.11,0.23 -9.38,0.11 -32.64,9.33 -39.87,-32.12 -25.7,-26.91 -10.23,-14.4 -15.68,-22.14 -16.06,-19.49 -3.63,-4.45 -31.3,-18.31 -24.03,-23.97 -2.94,-24.11 -11.78,-13.44 -4.48,-5.11 27.93,-16.72 0.3,-30.57 2.77,-45.87 5.76,-18.76 14.52,-21.86 8.47,-21.76 -14.25,-15.59 -38.58,17.28 -5.06,-30.06 -7.11,-38 -7.73,-34.24 -6.97,-22.32 -8.19,-15.57 -10.94,-21.02 -10.09,-17.69 -3.18,-5.55 -1.06,-1.99 -10.88,-17.92 -10.93,-18 -8.27,-19.81 -4.91,-21.11 -4.23,-23.48 -23.85,-35.98 -15.62,-23.39 27.1,-26.14 4.92,-40.47 23.15,-17.73 17.89,-10.98 -10.82,-14.38 -18.26,-16.72 -12.8,-16.16 -22.15,-5.2 -4.22,-17.45 -17.69,-26.97 -32.96,-22.07 -17.56,-19.1 -34.17,-3.93 -26.03,-5.64 -0.74,-0.16 -42.76,1.02 -20.02,-2.54 -15.44,-1.96 -21.27,9.27 -12.5,13.36 -13.9,11.61 -30.68,8.08 -15.22,13.44 -24.85,-15.49 -23.33,4.46 -22.11,-4.65 3.78,-22.96 -28.71,2.66 -23.29,5.08 -28.04,5.02 -19.43,-3.48 -29.3,-14.64 -12.45,-17.5 -20.19,-13.13 -18.68,-1.04 -25.4,0.82 -29.94,11.14 -22.06,0.16 -8.82,-19.19 -31.48,-2.21 -41.91,10.03 -17.33,9.77 -20.76,-3.4 -28.12,-10.65 -14.78,-0.37 -23.29,-0.51 -17.34,6.19 -19.39,-5.29 -15.22,-18.01 -2.84,-18.23 -1.8,-11.83 9.67,-35.09 -20.19,-14.3 -26.19,-14.21 -33.29,3.21 -24.09,-0.99 -7.51,-16.19 -38.83,-8.16 -49.82,18.84 -14.26,-14.71 -19.41,-5.82 -30.12,-5.27 -1.52,-19.23 -16.2,-19.85 -22.05,0.22 0.24,-536.82 2.38,-603.15 5.19,-1299.02 0.76,-198.43 v -7.8 l 1900.34,-1413.34 25.6,-19.19 1118.91,-837.31"
       id="path3908"
       inkscape:connector-curvature="0"
       style="fill:#75aadb;fill-opacity:1;fill-rule:evenodd;stroke:#ffffff;stroke-width:38.7194858;stroke-linejoin:round;stroke-miterlimit:4;stroke-dasharray:none;stroke-opacity:1"
       inkscape:label="Pirané">
      <title
         id="title844">Pirané</title>
    </path>
    <path
       d="m -326362.36,117640.08 v 0 l -11.17,27.88 2.22,1.5 -5.17,12.89 40.96,27.74 147.71,9.18 52.33,19.01 12.46,26.1 -4.49,61.42 1,72.1 11.1,23.73 17.98,-4.1 34.57,-51.44 17.62,-14.9 20.75,1.83 49.02,35.9 12.48,26.11 12.11,54.94 17.07,7.95 30.02,17.93 16.14,9.65 24.67,42.58 1.52,47.33 -8.83,21.47 -30.34,101.79 -20.85,35.44 -73.01,23.65 -32.63,30.95 8.37,3.67 66.43,29.12 12.56,28.5 47.26,20.32 11.08,62.2 28.25,-6.78 23.95,-19.91 27.4,6.46 53.59,56.17 67.97,60.62 60.82,39.16 -8.11,11.13 -7.99,10.95 -45.04,8.48 -0.66,13.98 -2.4,50.98 11.21,65.8 -4.05,8.13 -16.6,33.3 0.48,7.48 7.27,111.28 13.72,23.65 18.15,0.7 46.64,-38.56 31.22,3.93 102.89,136.52 -4.16,12.87 1.18,1.57 -17.24,53.36 15.96,39.27 31.9,24.35 72.86,9.96 16.1,16.36 -9.82,55.56 24.06,61.81 52.66,24.95 43.1,10.79 13.5,16.44 17.84,69.2 24.82,44.95 14.29,0.81 74.72,-12.94 13.16,5.63 35.17,44.65 7.09,35.63 14.75,74.29 14.82,16.4 47.49,-13.37 26.27,48.52 26.9,29.27 17.24,11.52 40.27,40.9 19.83,49.89 -7.17,52.6 38.47,115.25 -1.9,16.88 -1.54,1.55 -13.4,13.41 -7.19,14.67 2.32,3.65 7.39,11.65 69.55,-8.66 32.79,11.07 26.69,22.06 31.06,74.8 12.6,65.71 -3.61,11.22 -11.63,36.09 1.04,1.95 19.73,37.1 -5.31,10.13 -20.27,38.67 0.96,6.95 5.93,43.3 33.2,29.56 53.31,118.31 24.06,16.36 51.88,16.06 80.91,82.34 27.36,30.66 60.82,30.63 28.09,60.32 51.15,24.78 87.56,-1.1 8.29,7.64 29.42,21.18 54.91,27.32 53.23,13.36 66.45,1.82 36.06,13.35 3.49,25.44 -3.59,10.22 0.58,4.27 -7.12,20.23 -4.97,14.15 61.92,11.49 10.65,27.95 39.94,2013.6 0.2,11.05 -2628.82,4.24 0.1,-76.95 v -25.67 l 0.2,-126.6 0.38,-251.58 0.16,-125.98 0.46,-252.22 0.2,-125.33 0.34,-252.92 0.24,-124.66 0.4,-253.51 0.2,-124.08 0.4,-254.15 0.16,-123.4 0.42,-254.78 0.22,-122.79 0.42,-255.51 0.2,-122.08 0.42,-256.06 0.16,-88.78 v -0.71 l 0.1,-32.06 0.16,-87.12 0.28,-169.52 0.16,-120.93 0.24,-124.97 0.22,-132.37 0.1,-55.01 0.55,-323.17 0.12,-54.41 0.58,-323.89 v -53.71 l 0.58,-324.47 -0.18,-53.11 -0.6,-171.07 -0.62,-171.68 69.21,21.74 4.14,9.68"
       id="path3910"
       inkscape:connector-curvature="0"
       style="fill:#75aadb;fill-opacity:1;fill-rule:evenodd;stroke:#ffffff;stroke-width:38.7194858;stroke-linejoin:round;stroke-miterlimit:4;stroke-dasharray:none;stroke-opacity:1"
       inkscape:label="Ramón Lista">
      <title
         id="title846">Ramón Lista</title>
    </path>
  </g>
  <g
     id="g3338"
     inkscape:groupmode="layer"
     inkscape:label="Provincias"
     clip-path="url(#clip)"
     visibility="visible"
     transform="matrix(0.02979838,0,0,0.02979838,9800.472,-3403.7995)"
     style="visibility:visible;display:inline"
     sodipodi:insensitive="true" />
  <g
     id="g3001"
     inkscape:groupmode="layer"
     inkscape:label="Paises"
     clip-path="url(#clip)"
     visibility="visible"
     transform="matrix(0.02979838,0,0,0.02979838,9800.472,-3403.7995)"
     style="visibility:visible;display:inline"
     sodipodi:insensitive="true" />
  <defs
     id="defs4397">
    <clipPath
       id="clip">
      <rect
         width="7774.8057"
         height="5974.0298"
         transform="matrix(33.558872,0,0,33.558872,-471493.75,104382.5)"
         y="0"
         x="0"
         id="rect4400" />
    </clipPath>
    <clipPath
       id="clip2">
      <rect
         width="7774.8057"
         height="5974.0298"
         transform="translate(-14049.75,3110.4293)"
         y="0"
         x="0"
         id="rect4403" />
    </clipPath>
    <pattern
       width="8"
       height="8"
       x="0"
       y="0"
       id="VBAPattern"
       patternUnits="userSpaceOnUse">
      <path
         d="M4,0L8,0L8,4L4,4L4,0M0,4L4,4L4,8L0,8L0,4"
         fill="#d2d2d2"
         id="path4406" />
    </pattern>
  </defs>
</svg>
